<svg xmlns="http://www.w3.org/2000/svg" fill="none" viewBox="0 0 24 24" id="Hardhat-Icon--Streamline-Svg-Logos" height="24" width="24">
  <desc>
    Hardhat Icon Streamline Icon: https://streamlinehq.com
  </desc>
  <path fill="#f0d50c" d="M23.7501 17.5003s-3.579425 -0.530275 -5.470875 -0.682375c-1.816425 -0.145925 -3.9689 -0.2302 -6.2781 -0.2302s-4.461675 0.084275 -6.277575 0.2302c-1.891975 0.15415 -5.470865 0.889975 -5.470865 0.889975v0.924925c0 0.822125 5.26019 1.490125 11.74844 1.490125 6.488275 0 11.74845 -0.668 11.74845 -1.490125l0.000525 -1.132525Z" stroke-width="0.25"></path>
  <path fill="#f0d50c" d="M8.388625 5.232375C4.098525 6.760975 1.2336425 10.822825 1.2333975 15.377125v1.525075c1.5309275 -0.36575 3.0918525 -0.592075 4.6636275 -0.6762 -0.010625 -0.29255 -0.0161 -0.587325 -0.01645 -0.884325 0.00155 -4.0018 0.96755 -7.6028 2.50805 -10.1093Z" stroke-width="0.25"></path>
  <path fill="#fff04d" d="M22.768125 15.377125c0.003675 -2.498975 -0.865625 -4.92075 -2.4577 -6.846925 0.6902 2.204425 1.0341 4.5026 1.01945 6.8125 0 0.420325 -0.010775 0.83585 -0.032375 1.246575 0.489975 0.0754 0.975275 0.178325 1.453675 0.3083l0.01695 -1.52045Z" stroke-width="0.25"></path>
  <path fill="#ffea00" d="M22.768125 15.377125c0.003675 -2.498975 -0.865625 -4.92075 -2.4577 -6.846925 0.6902 2.204425 1.0341 4.5026 1.01945 6.8125 0 0.420325 -0.010775 0.83585 -0.032375 1.246575 0.489975 0.0754 0.975275 0.178325 1.453675 0.3083l0.01695 -1.52045Z" stroke-width="0.25"></path>
  <path fill="#fff04d" d="M20.310325 8.529675c-2.88475 -3.496875 -7.6494 -4.81475 -11.9211 -3.2973 -1.541525 2.5065 -2.507025 6.1075 -2.507025 10.1098 0 0.297 0.005475 0.591775 0.01645 0.884325 1.603175 -0.123825 3.459175 -0.2004 5.4467 -0.214275l0.6567 0c3.10885 -0.0373 6.2162 0.156275 9.2964 0.5791 0.0209 -0.411075 0.031675 -0.8266 0.032375 -1.246575 0.014575 -2.3108 -0.329675 -4.609875 -1.0205 -6.815075Z" stroke-width="0.25"></path>
  <path fill="#fff04d" d="M16.332225 9.241875 15.64985 4.977c-0.048475 -0.3138 -0.2733 -0.5716 -0.57755 -0.66235 -1.988275 -0.583475 -4.1023 -0.583475 -6.09055 0 -0.304075 0.0909 -0.528675 0.3487 -0.57705 0.66235l-0.6829 4.264875" stroke-width="0.25"></path>
  <path fill="#fff04d" d="m12.002075 15.9218 -0.612 0h-0.0452c-6.18305 0.04315 -11.09177 0.69265 -11.09177 1.48755v1.15205c-0.0100165 0.0675 0.0043775 0.136375 0.040595 0.194225 0.314025 -0.23585 0.6749775 -0.4016 1.05851 -0.4861 0.9767875 -0.237675 1.96959 -0.4039 2.970515 -0.4974 0.568475 -0.06235 1.136275 0.122975 1.558475 0.5087 0.77305 0.707725 1.783175 1.100225 2.83125 1.10015h6.577175c1.048075 0 2.058175 -0.392475 2.83125 -1.10015 0.422175 -0.38615 0.990275 -0.571725 1.559 -0.5092 1.00075 0.093475 1.993375 0.259725 2.97 0.4974 0.363225 0.069825 0.70625 0.219925 1.004025 0.439325 0.016975 0.01695 0.0365 0.03185 0.0514 0.047275 0.036475 -0.05815 0.051025 -0.12735 0.0411 -0.195275v-1.152025C23.75 16.58875 18.489825 15.9218 12.002075 15.9218Z" stroke-width="0.25"></path>
  <path fill="#6e6f70" d="m14.47665 12.50065 -2.47775 1.525075v1.98085l2.47775 -3.505925Z" stroke-width="0.25"></path>
  <path fill="#0a0a0a" d="M12.001675 16.006575v-1.98085l-2.47775 -1.525075 2.47775 3.505925Z" stroke-width="0.25"></path>
  <path fill="#0a0a0a" d="m9.523925 11.595775 2.47775 1.432575V7.588325l-2.47775 4.00745Z" stroke-width="0.25"></path>
  <path fill="#6e6f70" d="m14.47665 11.595775 -2.47775 -4.00795v5.440025l2.47775 -1.4326v0.000525Z" stroke-width="0.25"></path>
</svg>