<svg xmlns="http://www.w3.org/2000/svg" fill="none" viewBox="0 0 24 24" id="Truffle-Icon--Streamline-Svg-Logos" height="24" width="24">
  <desc>
    Truffle Icon Streamline Icon: https://streamlinehq.com
  </desc>
  <path fill="#5e464d" d="M11.97205 23.6053c6.33535 0 11.471175 -5.19585 11.471175 -11.60525 0 -6.409425 -5.135825 -11.605275 -11.471175 -11.605275 -6.335375 0 -11.471195 5.19585 -11.471195 11.605275 0 6.4094 5.13582 11.60525 11.471195 11.60525Z" stroke-width="0.25"></path>
  <path fill="#ffffff" d="M8.364625 22.29055c0.46925 0.1602 2.045175 0.672625 2.112225 0.17155 0.03635 -0.27495 -0.79535 -0.556725 -1.92135 -1.15325 -1.60145 -0.846375 -3.0665 -1.9288 -4.346 -3.210925C2.3419 16.2667 1.268005 13.77535 1.2189925 11.160225 1.12355 7.649325 2.496095 4.811075 4.75375 2.9795 1.9929125 5.1104 0.3399575 8.372475 0.25435 11.858975 0.18731275 14.398425 0.897445 16.5379 2.2313575 18.485375c0.4142175 0.534975 0.8983925 1.0119 1.4395675 1.417975 1.27825 0.966925 3.147325 1.861125 4.6937 2.38605" stroke-width="0.25"></path>
  <path fill="#ffffff" d="M23.601125 9.340225c-0.711275 -3.345 -2.922325 -5.686725 -5.8799 -7.34106 2.26675 1.61001 5.44815 5.03341 3.567725 8.05346 -1.5907 2.419 -5.453825 1.9452 -7.57285 0.79535C11.2028 9.484525 8.05775 6.41675 11.159625 3.4183c2.011075 -1.9406575 8.40795 0.2352 7.281975 3.135925 -0.656725 1.687275 -3.213225 1.312325 -4.36305 0.48745 -0.847625 -0.609025 -1.561175 -1.655475 -1.1828 -2.736 0.120425 -0.34655 0.1034 -0.883975 -0.386325 -0.488575 -0.3613 0.295425 -0.548775 0.781725 -0.6124 1.2362 -0.535175 3.78245 6.2037 6.715 8.203425 3.055275 1.037375 -1.89975 -0.644225 -4.658475 -2.760975 -5.7878625 -1.5907 -0.8521575 -3.246175 -1.4509425 -5.275425 -1.3055075 -3.245025 0.2272425 -5.9674 2.26107 -6.3094 5.57652 -0.34085 3.295025 1.86225 6.260525 4.456225 8.03415 2.7269 1.8634 6.392325 3.09165 9.746425 1.980425C22.963725 15.60985 24.2056 12.159175 23.601125 9.3425" stroke-width="0.25"></path>
  <path fill="#3fe0c5" d="M19.369875 6.7778c0.3227 -2.1679 -1.637275 -3.656325 -3.44725 -4.332375 -2.1338 -0.7953475 -4.95275 -0.4476675 -6.507075 1.31915 -1.136225 1.29755 -1.062375 3.181375 -0.476075 4.706175 0.886225 2.3031 2.8871 3.96765 5.216325 4.686875 1.655475 0.5113 3.65635 0.734 5.3334 0.1943 2.44625 -0.7874 3.242725 -3.3382 2.737125 -5.675375 -0.10825 -0.50525 -0.2745 -0.996325 -0.4954 -1.46345 -0.30905 -0.648775 -1.2555 -1.962225 0.048875 -0.36245 0.136725 0.1783 0.262675 0.364575 0.3772 0.557875 0.269075 0.442025 0.482425 0.915625 0.63515 1.41005 0.711275 2.181525 0.1534 4.726625 -1.817925 6.0435 -1.5123 1.007825 -3.434775 1.12825 -5.189075 0.876025 -2.351975 -0.340875 -4.568725 -1.477075 -6.109425 -3.30525 -1.406625 -1.666825 -2.366725 -4.060825 -1.7884 -6.24915 0.423825 -1.600925 1.72365 -2.7962225 3.28025 -3.29502 1.96905 -0.6374125 4.13695 -0.3408625 5.9083 0.69422 0.888525 0.516975 1.704325 1.2328 2.1588 2.1713 0.205575 0.4228 0.3161 0.88545 0.323825 1.3555 0.004525 0.190375 -0.010325 0.380725 -0.044325 0.5681 -0.0125 0.068175 -0.1568 0.2602 -0.136325 0.102275" stroke-width="0.25"></path>
</svg>